<?xml version="1.0" encoding="utf-8"?>
<!-- Generator: Adobe Illustrator 21.0.0, SVG Export Plug-In . SVG Version: 6.00 Build 0)  -->
<svg version="1.1" xmlns="http://www.w3.org/2000/svg" xmlns:xlink="http://www.w3.org/1999/xlink" x="0px" y="0px"
	 viewBox="0 0 1877.9 792" style="enable-background:new 0 0 1877.9 792;" xml:space="preserve">
<style type="text/css">
	.st0{fill:#F8C712;}
	.st1{fill:#4C5147;}
	.st2{fill:#4F4F4F;}
	.st3{fill:none;}
</style>
<g id="Layer_1">
	<circle class="st0" cx="387.4" cy="452.6" r="5.6"/>
	<circle class="st0" cx="394" cy="421" r="7.6"/>
	<circle class="st0" cx="394.1" cy="368.3" r="7.6"/>
	<circle class="st1" cx="388.4" cy="393.7" r="11.8"/>
	<g>
		<path class="st2" d="M1019.7,345.7h-4.6c-1.7,0-3,1.4-3,3v88.8c0,1.7-0.1,3-0.2,3s-0.9-1.1-1.9-2.5l-30.9-44.9l-30.9-44.9
			c-0.9-1.4-3.1-2.5-4.7-2.5h-5.9c-1.7,0-3,1.4-3,3v106.1c0,1.7,1.4,3,3,3h4.6c1.7,0,3-1.4,3-3V366v-3h0.2h0.2l32.6,47.4l30.9,44.9
			c0.9,1.4,3.1,2.5,4.7,2.5h5.9c1.7,0,3-1.4,3-3V348.7C1022.7,347,1021.4,345.7,1019.7,345.7z"/>
		<path class="st2" d="M1143.3,345.7h-82.7c-1.7,0-3,1.4-3,3v3.1c0,1.7,1.4,3,3,3h33h3v3v97c0,1.7,1.4,3,3,3h4.6c1.7,0,3-1.4,3-3
			v-97v-3h3h33c1.7,0,3-1.4,3-3v-3.1C1146.3,347,1145,345.7,1143.3,345.7z"/>
		<path class="st2" d="M1265.3,345.7h-4.6c-1.7,0-3,1.4-3,3v88.8c0,1.7-0.1,3-0.2,3s-0.9-1.1-1.9-2.5l-30.9-44.9l-30.9-44.9
			c-0.9-1.4-3.1-2.5-4.7-2.5h-5.9c-1.7,0-3,1.4-3,3v106.1c0,1.7,1.4,3,3,3h4.6c1.7,0,3-1.4,3-3V366c0-1.7,0.1-3,0.2-3
			s0.9,1.1,1.9,2.5l30.9,44.9l30.9,44.9c0.9,1.4,3.1,2.5,4.7,2.5h5.9c1.7,0,3-1.4,3-3V348.7C1268.3,347,1267,345.7,1265.3,345.7z"/>
		<path class="st2" d="M1395.1,345.7h-4.6c-1.7,0-3,1.4-3,3v63.4v3c0.2,26.1-12.2,36-32.9,36c-20.5,0-32.9-9.9-32.7-36v-3v-63.4
			c0-1.7-1.4-3-3-3h-4.6c-1.7,0-3,1.4-3,3v65.7v3c0,23.1,12.4,42.7,43.4,42.7c31.2,0,43.6-19.6,43.6-42.7v-3v-65.7
			C1398.2,347,1396.8,345.7,1395.1,345.7z"/>
	</g>
	<polygon class="st3" points="609.7,377.8 609.7,377.8 608.7,375 607.7,377.8 607.7,377.8 596.7,409.2 596.7,409.2 595.7,412 
		598.7,412 618.7,412 621.7,412 618.8,403.8 	"/>
	<path class="st3" d="M431.1,381.8l-0.3-0.8c0,0,0,0,0,0l-0.9-2.9v3v0.7c0.3,0,0.5,0,0.8,0C430.9,381.8,431,381.8,431.1,381.8z"/>
	<path class="st0" d="M623.8,348.4c-0.6-1.5-2.4-2.8-4.1-2.8h-21.2c-1.6,0-3.5,1.3-4.1,2.8L552.9,455c-0.6,1.5,0.3,2.8,1.9,2.8h20.8
		c1.6,0,3.5-1.3,4.1-2.8l7.3-19.2l1.1-2.8h3h35.1h3l1.5,3.9l6.8,18.1c0.6,1.5,2.4,2.8,4.1,2.8h22.3c1.6,0,2.5-1.3,1.9-2.8
		L623.8,348.4z M618.7,412h-20h-3l1-2.8l0,0l11-31.4c0,0,0,0,0,0l1-2.8l1,2.8l0,0l9.1,26l2.9,8.2H618.7z"/>
	<path class="st0" d="M759.7,428.3l-24-29.6l2-2.3l0,0l42.3-48.5c1.1-1.2,0.6-2.3-1-2.3h-26c-1.7,0-3.9,1-4.9,2.3L732,367.2
		l-16.1,19.2l0,0l-1.9,2.3v-3v-37c0-1.7-1.4-3-3-3h-19.7c-1.7,0-3,1.3-3,3v106.2c0,1.6,1.3,3,3,3h19.7c1.6,0,3-1.4,3-3v-40.8v-3
		l34.4,44.4c1,1.3,3.2,2.4,4.8,2.4h27.5c1.6,0,2.2-1,1.1-2.3L759.7,428.3z"/>
	<path class="st0" d="M869.2,436.8h-36.5h-3v-3v-20.4v-3h3h32.6c1.6,0,3-1.4,3-3v-15c0-1.7-1.4-3-3-3h-32.6h-3v-3v-16.7v-3h3h36.2
		c1.6,0,3-1.4,3-3v-15c0-1.7-1.4-3-3-3H807c-1.7,0-3,1.3-3,3v106.2c0,1.6,1.3,3,3,3h62.2c1.6,0,3-1.4,3-3v-15
		C872.2,438.1,870.8,436.8,869.2,436.8z"/>
	<path class="st0" d="M527.4,345.7h-32.2c-1.6,0-3.4,1.3-3.9,2.9l-23.5,74.9l0,0v0l-23.5-74.9c-0.5-1.6-2.2-2.9-3.9-2.9h-17.2v0h-15
		l-1.5,0c-4.2,0-7.6,3.4-7.6,7.6c0,3.6,2.5,6.7,5.9,7.4l0.9,0.1l0,0c3.8,0.4,6.8,3.6,6.8,7.6c0,4.2-3.4,7.6-7.6,7.6c0,0,0,0,0,0
		v27.6c4,0,7.3,3.3,7.3,7.3c0,4-3.3,7.3-7.3,7.3v18.7c3.9,0,7,3.1,7,7c0,3.9-3.1,7-7,7c3.9,0,7,3.1,7,7h14.8c1.7,0,3-1.4,3-3v-49.4
		v-24.3v-3l0.9,2.9l0,0L438,403c0,0,0,0,0,0l4.9,15.1l12.1,37c0.5,1.6,2.3,2.9,3.9,2.9h17.7c1.6,0,3.4-1.3,3.9-2.9l12.1-37l12.1-37
		c0,0,0,0,0,0l0.9-2.9v3v73.7c0,1.6,1.3,3,3,3h18.8c1.6,0,3-1.4,3-3V348.7C530.4,347,529,345.7,527.4,345.7z"/>
	<path class="st1" d="M405.2,436.8c-3.9,0-7,3.1-7,7c0,3.9,3.1,7,7,7c0,0,0,0,0,0c3.9,0,7-3.1,7-7
		C412.2,439.9,409,436.8,405.2,436.8z"/>
</g>
<g id="Layer_2">
</g>
</svg>
